<?xml version="1.0" encoding="UTF-8"?>
<svg class="askBlueThumbsUp askBlueFlexFeedback" width="20px" height="20px" viewBox="0 0 20 20" fill="none" xmlns="http://www.w3.org/2000/svg">
    <path d="M6.00004 9.02002H3.92004V15.94H6.00004V9.02002Z" fill="#888C8C"/>
    <path d="M15 15.84V15.94H8V8.99998L9.15 7.69998L12.15 4.19998C12.29 4.04998 12.43 3.88998 12.63 3.91998C12.6702 3.92376 12.709 3.9365 12.7436 3.95727C12.7782 3.97804 12.8078 4.0063 12.83 4.03998C12.846 4.06545 12.8544 4.09491 12.8544 4.12498C12.8544 4.15505 12.846 4.1845 12.83 4.20998L11.44 7.64998C11.3839 7.79993 11.3647 7.96114 11.3839 8.12006C11.4031 8.27899 11.4602 8.43098 11.5503 8.56326C11.6405 8.69555 11.7611 8.80426 11.902 8.88025C12.0429 8.95625 12.1999 8.99731 12.36 8.99998H15.13C15.3678 8.99995 15.6023 9.0561 15.8143 9.16384C16.0263 9.27158 16.2098 9.42787 16.35 9.61998C16.4289 9.7311 16.4928 9.85215 16.54 9.97998H13C12.7348 9.97998 12.4804 10.0853 12.2929 10.2729C12.1054 10.4604 12 10.7148 12 10.98C12 11.2452 12.1054 11.4995 12.2929 11.6871C12.4804 11.8746 12.7348 11.98 13 11.98H16.24L15.92 12.98H13C12.7348 12.98 12.4804 13.0853 12.2929 13.2729C12.1054 13.4604 12 13.7148 12 13.98C12 14.2452 12.1054 14.4995 12.2929 14.6871C12.4804 14.8746 12.7348 14.98 13 14.98H15.28L15 15.84Z" fill="#BBBFBF"/>
    <path d="M15.13 6.99999H13.9L14.7 4.87999C14.8211 4.55312 14.8624 4.20206 14.8205 3.85601C14.7786 3.50996 14.6547 3.17892 14.4591 2.8904C14.2635 2.60188 14.0018 2.36422 13.6959 2.19717C13.3899 2.03013 13.0485 1.93853 12.7 1.92999C12.3198 1.93424 11.9448 2.01936 11.5999 2.17971C11.2551 2.34005 10.9483 2.57195 10.7 2.85999L7.00004 6.99999H3.42004C3.02222 6.99999 2.64069 7.15803 2.35938 7.43933C2.07808 7.72064 1.92004 8.10217 1.92004 8.49999V16.42C1.92004 16.8178 2.07808 17.1993 2.35938 17.4807C2.64069 17.762 3.02222 17.92 3.42004 17.92H6.00004C6.36791 17.916 6.72237 17.7813 7.00004 17.54C7.27584 17.7844 7.63151 17.9196 8.00004 17.92H15.22C16.22 17.92 16.61 17.53 16.89 16.41L18.44 11.56C18.6039 11.0375 18.6432 10.484 18.5549 9.9436C18.4666 9.40322 18.253 8.891 17.9314 8.44789C17.6097 8.00477 17.1889 7.64305 16.7025 7.39164C16.216 7.14023 15.6776 7.00611 15.13 6.99999ZM3.92004 8.99999H6.00004V15.92H3.92004V8.99999ZM15 15.84V15.94H8.00004V8.99999L9.15004 7.69999L12.15 4.19999C12.29 4.04999 12.43 3.88999 12.63 3.91999C12.6702 3.92377 12.7091 3.93652 12.7437 3.95728C12.7783 3.97805 12.8078 4.00631 12.83 4.03999C12.846 4.06547 12.8545 4.09493 12.8545 4.12499C12.8545 4.15506 12.846 4.18452 12.83 4.20999L11.44 7.64999C11.384 7.79994 11.3648 7.96115 11.384 8.12008C11.4032 8.279 11.4602 8.43099 11.5504 8.56328C11.6405 8.69556 11.7611 8.80427 11.902 8.88027C12.0429 8.95626 12.2 8.99732 12.36 8.99999H15.13C15.3679 8.99997 15.6023 9.05611 15.8143 9.16385C16.0263 9.27159 16.2099 9.42788 16.35 9.61999C16.4289 9.73112 16.4928 9.85216 16.54 9.97999H13C12.7348 9.97999 12.4805 10.0853 12.2929 10.2729C12.1054 10.4604 12 10.7148 12 10.98C12 11.2452 12.1054 11.4996 12.2929 11.6871C12.4805 11.8746 12.7348 11.98 13 11.98H16.24L15.92 12.98H13C12.7348 12.98 12.4805 13.0853 12.2929 13.2729C12.1054 13.4604 12 13.7148 12 13.98C12 14.2452 12.1054 14.4996 12.2929 14.6871C12.4805 14.8746 12.7348 14.98 13 14.98H15.28L15 15.84Z" fill="#0F1111"/>
</svg>